<svg width="911" height="299" viewBox="0 0 911 299" fill="none" xmlns="http://www.w3.org/2000/svg">
<path d="M683.25 298.995L911 0.00402832H773.925L546.183 298.995H683.258H683.25ZM236.495 161.988C211.637 192.778 157.55 261.752 128.398 298.996H0C0 298.996 102.882 164.321 160.07 90.4199C218.986 16.7934 248.353 0 356.421 0H749.79L664.619 111.813L364.407 111.814C288.475 111.814 271.417 118.722 236.495 161.988Z" fill="#FF0000"/>
<path d="M371 135.5C295.068 135.5 278.093 142.733 243.172 186L203 234.5H481.8C539 234.5 582.5 213.5 609.628 184L646.569 135.5H371Z" fill="#FF0000"/>
</svg>
