<svg width="1121" height="321" fill="none" xmlns="http://www.w3.org/2000/svg"><g style="mix-blend-mode:difference" fill-rule="evenodd" clip-rule="evenodd" fill="red"><path d="M599.72 300.571c-.327 9.524-6.477 18.108-15.72 20.429-41.1-214.925 231.433-259.596 435.36-233.171 53.42 10.416 84.07 14.499 100.79 15.848 0 6.035-5.09 10.838-11.12 10.568-272.434-12.179-503.808 26.128-509.31 186.326ZM520.426 300.571c.327 9.524 6.477 18.108 15.72 20.429C577.245 106.075 304.713 61.404 100.79 87.829 47.37 98.245 16.713 102.328 0 103.677c0 6.035 5.084 10.838 11.113 10.568 272.437-12.179 503.811 26.128 509.313 186.326Z"/></g><path d="M1110.86 70.285c-127.501-24-244.244-24-548.001-24-303.757 0-454 1.5-547 20-7-20.5 243-70.5 547-66 341.462 5.054 563.501 41.5 548.001 70Z" fill="red" style="mix-blend-mode:difference"/></svg>