<svg width="175" height="375" viewBox="0 0 175 375" fill="none" xmlns="http://www.w3.org/2000/svg">
<path d="M163.876 291.091H144.313C138.169 291.091 133.189 296.071 133.189 302.215V305.453L126.371 297.529L143.652 250.368C145.235 246.049 146.61 241.595 147.739 237.13C152.702 217.508 154.712 206.406 153.086 182.705L153.02 179.582C152.738 166.076 141.52 155.088 128.012 155.088H123.092C120.453 143.038 118.443 130.818 117.086 118.481L132.001 110.647V115.301C132.001 121.445 136.981 126.425 143.125 126.425H161.877C168.02 126.425 173.001 121.445 173.001 115.301V73.2153C173.001 67.0713 168.021 62.0913 161.877 62.0913H143.125C136.981 62.0913 132.001 67.0713 132.001 73.2153V85.0623L114.957 78.7063C114.957 78.4813 115.045 57.0893 115.045 57.0893H160.358C165.866 57.0893 170.33 52.6243 170.33 47.1173V28.7303C170.33 23.2223 165.865 18.7583 160.358 18.7583H115.212L115.214 18.2933C115.235 13.5093 113.544 8.80325 110.21 5.37325C106.05 1.09325 100.12 -0.815747 94.048 0.324253C91.815 0.743253 89.672 1.61625 87.785 2.88125C82.651 6.32525 79.762 11.8393 79.785 17.7653L79.786 18.7583H34.643C29.135 18.7583 24.671 23.2233 24.671 28.7303V47.1153C24.671 52.6233 29.136 57.0873 34.643 57.0873H79.825C79.825 57.0873 79.843 78.6303 79.843 78.9313L63 85.1083V73.2153C63 67.0713 58.02 62.0913 51.876 62.0913H33.124C26.98 62.0913 22 67.0713 22 73.2153V115.301C22 121.445 26.98 126.425 33.124 126.425H51.876C58.019 126.425 63 121.445 63 115.301V110.577L77.821 118.238C76.495 130.743 74.512 143.044 71.896 155.088H66.94C53.465 155.088 42.212 166.111 41.933 179.582L41.856 183.309C40.356 206.456 42.346 217.371 47.234 236.702C48.342 241.086 49.687 245.459 51.231 249.7L68.641 297.516L61.812 305.453V302.215C61.812 296.071 56.832 291.091 50.688 291.091H31.124C24.98 291.091 20 296.071 20 302.215V344.301C20 350.445 24.98 355.425 31.124 355.425H50.688C56.832 355.425 61.812 350.445 61.812 344.301V325.383L73.74 311.522L74.365 313.239C77.129 320.829 83.441 326.45 91.001 328.533V337.637H77.249C71.741 337.637 67.277 342.102 67.277 347.61V364.868C67.277 370.376 71.742 374.841 77.249 374.841H117.752C123.26 374.841 127.724 370.376 127.724 364.868V347.61C127.724 342.102 123.259 337.637 117.752 337.637H104.001V328.527C111.533 326.442 117.828 320.842 120.597 313.287L121.248 311.509L133.188 325.386V344.303C133.188 350.447 138.168 355.427 144.312 355.427H163.876C170.019 355.427 175 350.447 175 344.303V302.217C175 296.071 170.02 291.091 163.876 291.091ZM145 75.0913H160V113.425H145V75.0913ZM50 113.425H35V75.0913H50V113.425ZM48.812 342.425H33V304.091H48.812V342.425ZM114.724 361.839H80.276V350.636H114.724V361.839ZM115.331 189.527L113.964 201.757H81.037L79.671 189.536C79.701 179.727 87.687 171.757 97.502 171.757C107.313 171.758 115.296 179.724 115.331 189.527ZM112.51 214.758L109.084 245.402C108.424 251.309 103.444 255.763 97.501 255.763C91.558 255.763 86.578 251.309 85.918 245.402L82.492 214.758H112.51ZM128.689 97.7013L115.833 104.454C115.559 100.535 115.35 96.6072 115.205 92.6722L128.689 97.7013ZM157.33 31.7583V44.0883H115.101L115.155 31.7583H157.33ZM94.159 14.3873C95.051 13.4923 96.237 12.9993 97.5 12.9993C98.763 12.9993 99.949 13.4923 100.841 14.3873C101.732 15.2823 102.22 16.4703 102.216 17.7303L101.954 77.9793C101.842 106.472 104.999 134.701 111.331 162.046C107.168 159.947 102.472 158.758 97.501 158.758C92.526 158.758 87.827 159.949 83.662 162.051C89.868 135.095 92.961 106.868 92.846 77.9973L92.784 17.7323C92.78 16.4703 93.268 15.2813 94.159 14.3873ZM37.67 44.0883V31.7583H79.799L79.812 44.0883H37.67ZM66.41 97.7053L79.602 92.8672C79.466 96.6682 79.273 100.453 79.021 104.223L66.41 97.7053ZM59.837 233.516C55.188 215.13 53.434 205.504 54.837 184.012L54.929 179.852C55.063 173.366 60.45 168.088 66.939 168.088H68.804C68.753 168.284 67.903 171.548 67.903 171.548C66.357 177.453 65.916 183.524 66.594 189.59L72.996 246.847C74.393 259.341 84.927 268.763 97.5 268.763C110.072 268.763 120.606 259.341 122.003 246.847L128.405 189.59C129.083 183.524 128.642 177.453 127.095 171.547C127.095 171.547 126.245 168.285 126.194 168.088H128.01C134.498 168.088 139.886 173.366 140.021 179.857L140.105 183.447C141.628 205.481 139.856 215.275 135.134 233.943C134.114 237.974 132.873 241.997 131.444 245.896L116.593 286.425H78.436L63.445 245.253C62.053 241.424 60.838 237.475 59.837 233.516ZM108.391 308.812C106.722 313.367 102.341 316.427 97.49 316.427C92.629 316.427 88.244 313.358 86.581 308.79L83.462 300.223L84.149 299.424H110.852L111.539 300.222L108.391 308.812ZM162 342.425H146.188V304.091H162V342.425Z" fill="black"/>
<path d="M59.837 233.516C55.188 215.13 53.434 205.504 54.837 184.012L54.929 179.852C55.063 173.366 60.45 168.088 66.939 168.088H68.804L67.903 171.548C66.357 177.453 65.916 183.524 66.594 189.59L72.996 246.847C74.393 259.341 84.927 268.763 97.5 268.763C110.072 268.763 120.606 259.341 122.003 246.847L128.405 189.59C129.083 183.524 128.642 177.453 127.095 171.547C127.095 171.547 126.245 168.285 126.194 168.088H128.01C134.498 168.088 139.886 173.366 140.021 179.857L140.105 183.447C141.628 205.481 139.856 215.275 135.134 233.943C134.114 237.974 132.873 241.997 131.444 245.896L116.593 286.425H78.436L63.445 245.253C62.053 241.424 60.838 237.475 59.837 233.516Z" fill="#FF0000"/>
<path d="M94.159 14.3873C95.051 13.4923 96.237 12.9993 97.5 12.9993C98.763 12.9993 99.949 13.4923 100.841 14.3873C101.732 15.2823 102.22 16.4703 102.216 17.7303L101.954 77.9793C101.842 106.472 104.999 134.701 111.331 162.046C107.168 159.947 102.472 158.758 97.501 158.758C92.526 158.758 87.827 159.949 83.662 162.051C89.868 135.095 92.961 106.868 92.846 77.9973L92.784 17.7323C92.78 16.4703 93.268 15.2813 94.159 14.3873Z" fill="#FF0000"/>
<path d="M157.33 31.7583V44.0883H115.101L115.155 31.7583H157.33Z" fill="#FF0000"/>
<path d="M37.67 44.0883V31.7583H79.799L79.812 44.0883H37.67Z" fill="#FF0000"/>
<path d="M114.724 361.839H80.276V350.636H114.724V361.839Z" fill="#FF0000"/>
<path d="M108.391 308.812C106.722 313.367 102.341 316.427 97.49 316.427C92.629 316.427 88.244 313.358 86.581 308.79L83.462 300.223L84.149 299.424H110.852L111.539 300.222L108.391 308.812Z" fill="#FF0000"/>
<path d="M112.51 214.758L109.084 245.402C108.424 251.309 103.444 255.763 97.501 255.763C91.558 255.763 86.578 251.309 85.918 245.402L82.492 214.758H112.51Z" fill="#FF0000"/>
<path d="M115.331 189.527L113.964 201.757H81.037L79.671 189.536C79.701 179.727 87.687 171.757 97.502 171.757C107.313 171.758 115.296 179.724 115.331 189.527Z" fill="#F0780A"/>
<path d="M145 75.0913H160V113.425H145V75.0913Z" fill="black"/>
<path d="M50 113.425H35V75.0913H50V113.425Z" fill="black"/>
<path d="M162 342.425H146.188V304.091H162V342.425Z" fill="black"/>
<path d="M48.812 342.425H33V304.091H48.812V342.425Z" fill="black"/>
</svg>
