<?xml version="1.0" encoding="UTF-8" standalone="no" ?>
<!DOCTYPE svg PUBLIC "-//W3C//DTD SVG 1.1//EN" "http://www.w3.org/Graphics/SVG/1.1/DTD/svg11.dtd">
<svg xmlns="http://www.w3.org/2000/svg" xmlns:xlink="http://www.w3.org/1999/xlink" version="1.1" width="500" height="130" viewBox="0 0 500 130" xml:space="preserve">
<desc>Created with Fabric.js 4.6.0</desc>
<defs>
</defs>
<g transform="matrix(1.38 0 0 1.36 250 65)" id="ul8zvMnrbXhd8Qi05XEn9"  >
<path style="stroke: none; stroke-width: 1; stroke-dasharray: none; stroke-linecap: butt; stroke-dashoffset: 0; stroke-linejoin: miter; stroke-miterlimit: 4; fill: rgb(26,26,29); fill-rule: evenodd; opacity: 1;" vector-effect="non-scaling-stroke"  transform=" translate(0, 0)" d="M 123.26 45 L 125.14 45 L 125.14 36.32 L 125.17 36.32 L 128.29 45 L 129.91 45 L 133.03 36.32 L 133.06 36.32 L 133.06 45 L 134.94 45 L 134.94 33.75 L 132.2 33.75 L 129.17999999999998 42.55 L 129.14999999999998 42.55 L 126.04999999999998 33.75 L 123.27999999999999 33.75 L 123.27999999999999 45 z M 112.88 35.45 L 116.44 35.45 L 116.44 45 L 118.41 45 L 118.41 35.45 L 121.99 35.45 L 121.99 33.75 L 112.89 33.75 L 112.89 35.45 z M 90 45 L 180 -45 L 125.83 -45 L 35.84 45 z M 77.09 -5.81 L -31.849999999999994 -5.81 C -65.05 -5.81 -70.85999999999999 -4.05 -85.09 10.170000000000002 C -98.39 23.480000000000004 -120 45 -120 45 L -72.81 45 L -61.550000000000004 33.74 C -54.150000000000006 26.340000000000003 -50.330000000000005 25.57 -34.790000000000006 25.57 L 45.709999999999994 25.57 L 77.08999999999999 -5.809999999999999 z M -86.54 3.76 C -96.36000000000001 13.03 -117.74000000000001 33.79 -129.26 45 L -180 45 C -180 45 -139.35 4.460000000000001 -116.75 -17.78 C -93.47 -39.94 -81.86 -44.99 -39.16 -44.99 L 116.28 -44.99 L 82.62 -11.330000000000005 L -35.989999999999995 -11.330000000000005 C -66 -11.340000000000005 -72.74 -9.260000000000005 -86.53999999999999 3.7599999999999945 z" stroke-linecap="round" />
</g>
</svg>