<svg xmlns="http://www.w3.org/2000/svg" xml:space="preserve" width="1056" height="816" style="shape-rendering:geometricPrecision;text-rendering:geometricPrecision;image-rendering:optimizeQuality;fill-rule:evenodd;clip-rule:evenodd" viewBox="0 0 279.4 215.9"><defs><style>.str0{stroke:#000;stroke-width:.0762}.fil0{fill:#000}.fil1{fill:#fff}</style></defs><g id="Layer_x0020_1"><g id="_227646496"><path id="_227649208" class="fil0 str0" d="M19.638 11.9h48.025v48.025H19.638z"/><path id="_227649112" class="fil1 str0" d="M19.638 59.925h48.025v48.025H19.638z"/><path id="_227649016" class="fil0 str0" d="M19.638 107.95h48.025v48.025H19.638z"/><path id="_227648920" class="fil1 str0" d="M19.638 155.975h48.025V204H19.638z"/><path id="_227648824" class="fil1 str0" d="M67.663 11.9h48.025v48.025H67.663z"/><path id="_227648728" class="fil0 str0" d="M67.663 59.925h48.025v48.025H67.663z"/><path id="_227648632" class="fil1 str0" d="M67.663 107.95h48.025v48.025H67.663z"/><path id="_227648536" class="fil0 str0" d="M67.663 155.975h48.025V204H67.663z"/><path id="_227648440" class="fil0 str0" d="M115.688 11.9h48.025v48.025h-48.025z"/><path id="_227648344" class="fil1 str0" d="M115.688 59.925h48.025v48.025h-48.025z"/><path id="_227648248" class="fil0 str0" d="M115.688 107.95h48.025v48.025h-48.025z"/><path id="_227648152" class="fil1 str0" d="M115.688 155.975h48.025V204h-48.025z"/><path id="_227648056" class="fil1 str0" d="M163.712 11.9h48.025v48.025h-48.025z"/><path id="_227647960" class="fil0 str0" d="M163.712 59.925h48.025v48.025h-48.025z"/><path id="_227647864" class="fil1 str0" d="M163.712 107.95h48.025v48.025h-48.025z"/><path id="_227647768" class="fil0 str0" d="M163.712 155.975h48.025V204h-48.025z"/><path id="_227646712" class="fil0 str0" d="M211.737 11.9h48.025v48.025h-48.025z"/><path id="_227646664" class="fil1 str0" d="M211.737 59.925h48.025v48.025h-48.025z"/><path id="_227646352" class="fil0 str0" d="M211.737 107.95h48.025v48.025h-48.025z"/><path id="_227646568" class="fil1 str0" d="M211.737 155.975h48.025V204h-48.025z"/></g></g></svg>