<svg width="142" height="130" viewBox="0 0 142 130" fill="none" xmlns="http://www.w3.org/2000/svg">
<path d="M141.971 11.8793C141.971 15.8187 138.911 19.0251 135.152 19.0251H41.3207C37.5617 19.0251 34.5019 15.8187 34.5019 11.8793C34.5019 7.93986 37.5617 4.73338 41.3207 4.73338H135.181C138.94 4.76392 141.971 7.93986 141.971 11.8793ZM135.181 40.1574H41.3207C37.5617 40.1574 34.5019 43.3639 34.5019 47.3033C34.5019 51.2427 37.5617 54.4491 41.3207 54.4491H135.181C138.94 54.4491 142 51.2427 142 47.3033C141.971 43.3639 138.94 40.1574 135.181 40.1574ZM135.181 75.5814H41.3207C37.5617 75.5814 34.5019 78.7879 34.5019 82.7273C34.5019 86.6667 37.5617 89.8732 41.3207 89.8732H135.181C138.94 89.8732 142 86.6667 142 82.7273C141.971 78.7879 138.94 75.5814 135.181 75.5814ZM135.181 111.005H41.3207C37.5617 111.005 34.5019 114.212 34.5019 118.151C34.5019 122.091 37.5617 125.297 41.3207 125.297H135.181C138.94 125.297 142 122.091 142 118.151C141.971 114.212 138.94 111.005 135.181 111.005ZM11.3355 0C5.07039 0 0 5.3136 0 11.8793C0 18.4449 5.07039 23.7891 11.3355 23.7891C17.6007 23.7891 22.671 18.4449 22.671 11.8793C22.671 5.3136 17.6007 0 11.3355 0ZM11.3355 35.424C5.07039 35.424 0 40.7376 0 47.3033C0 53.8689 5.07039 59.1825 11.3355 59.1825C17.6007 59.1825 22.671 53.8689 22.671 47.3033C22.671 40.7376 17.6007 35.424 11.3355 35.424ZM11.3355 70.848C5.07039 70.848 0 76.1616 0 82.7273C0 89.2929 5.07039 94.6065 11.3355 94.6065C17.6007 94.6065 22.671 89.2929 22.671 82.7273C22.671 76.1616 17.6007 70.848 11.3355 70.848ZM11.3355 106.241C5.07039 106.241 0 111.555 0 118.121C0 124.686 5.07039 130 11.3355 130C17.6007 130 22.671 124.686 22.671 118.121C22.671 111.586 17.6007 106.241 11.3355 106.241Z" fill="#FF0000"/>
</svg>
