<svg width="540" height="540" fill="none" xmlns="http://www.w3.org/2000/svg"><g clip-path="url(#a)"><path d="M270 0a270 270 0 1 0 0 540 270 270 0 0 0 0-540Zm0 154.78a115.22 115.22 0 1 1 0 230.441 115.22 115.22 0 0 1 0-230.441Z" fill="#000"/><path d="m400.87 87.207-10.629 17.012a205.002 205.002 0 0 1 84.76 165.78 204.997 204.997 0 0 1-34.215 113.16l15.842 12.377a224.999 224.999 0 0 0 38.373-125.53 224.996 224.996 0 0 0-94.131-182.79v-.009ZM139.11 87.334a224.994 224.994 0 0 0-94.113 182.67 224.999 224.999 0 0 0 38.65 125.74l16.982-10.59a205 205 0 0 1-35.633-115.15 204.999 204.999 0 0 1 84.719-165.69l-10.605-16.98Z" fill="red"/><path d="M270 120a150.002 150.002 0 0 0-150 150 150.002 150.002 0 0 0 207.403 138.582 150.003 150.003 0 0 0 48.663-244.648A150.003 150.003 0 0 0 270 120Zm0 34.777a115.22 115.22 0 1 1 0 230.441 115.22 115.22 0 0 1 0-230.441Z" fill="#A8A8A8"/><path d="M270 145a125 125 0 1 0 .001 250A125 125 0 0 0 270 145Zm-9 17.939v63.02a45.025 45.025 0 0 0-9.6 3.127l-37.021-50.955A107.502 107.502 0 0 1 261 162.94v-.001Zm18 .012a107.486 107.486 0 0 1 46.602 15.201l-36.998 50.922a44.97 44.97 0 0 0-9.604-3.162v-62.961Zm61.209 25.719a107.498 107.498 0 0 1 28.787 39.699l-59.9 19.463a44.951 44.951 0 0 0-5.93-8.178l37.043-50.984Zm-140.38.062 37.004 50.932a44.99 44.99 0 0 0-5.961 8.162l-59.963-19.484a107.504 107.504 0 0 1 28.92-39.609v-.001ZM269.997 240a29.996 29.996 0 0 1 27.716 18.52A30 30 0 1 1 269.997 240Zm-104.55 5.492 59.863 19.451a45.233 45.233 0 0 0-.311 5.057c.019 1.687.132 3.372.34 5.047l-59.877 19.455A107.522 107.522 0 0 1 162.499 270a107.508 107.508 0 0 1 2.948-24.508Zm209.09.004A107.539 107.539 0 0 1 377.5 270a107.518 107.518 0 0 1-2.947 24.51l-59.863-19.451c.198-1.679.302-3.368.31-5.058a44.857 44.857 0 0 0-.34-5.049l59.877-19.455v-.001Zm-143.63 46.67a44.983 44.983 0 0 0 5.926 8.172l-37.043 50.986a107.496 107.496 0 0 1-28.781-39.695l59.898-19.463Zm78.221.01 59.965 19.484a107.503 107.503 0 0 1-28.918 39.607l-37.006-50.932a45.047 45.047 0 0 0 5.959-8.16v.001Zm-20.521 18.738 37.021 50.955a107.493 107.493 0 0 1-46.623 15.191v-63.02a45.023 45.023 0 0 0 9.602-3.127v.001Zm-37.215.008a45.057 45.057 0 0 0 9.613 3.166v62.961a107.502 107.502 0 0 1-46.609-15.205l36.996-50.922Z" fill="#fff"/></g><defs><clipPath id="a"><path fill="#fff" d="M0 0h540v540H0z"/></clipPath></defs></svg>