<svg width="40" height="26" fill="none" xmlns="http://www.w3.org/2000/svg"><path d="m16.711 1 21.643.1a.46.46 0 0 1 .287.097c1.256 1.013-1.057 1.271-2.693 1.278a.51.51 0 0 0-.488.357l-.233.76a.478.478 0 0 1-.178.25c-.88.626-3.002 1.858-5.46 2.454-3.235.784-3.137.294-4.51 1.275-1.023.73-1.388 3.333-1.46 4.796a.512.512 0 0 1-.283.436l-4.293 2.105a.5.5 0 0 1-.662-.215l-5.728-10.82a.5.5 0 0 0-.655-.218l-1.14.537a.5.5 0 0 0-.164.125L8.439 6.918a.5.5 0 0 0-.062.564l2.65 4.936c.02.037.035.076.045.116l.276 1.102a.5.5 0 0 1-.28.578l-2.087.935a.5.5 0 0 1-.613-.167l-1.181-1.668a.492.492 0 0 0-.63-.155c-.84.44-2.064 1.135-2.266 1.472-.294.49-.882 2.941-.784 3.53.072.43 1.683 3.525 2.683 5.399a.5.5 0 0 1-.249.697l-2.116.887c-.236.1-.507.001-.662-.203-.247-.326-.599-.658-.93-.603-.589.098-.883.588-1.178-.686-.294-1.275.589-7.453 2.55-12.944C5.044 6.68 7.528 4.322 8.862 3.455A.536.536 0 0 0 9.1 2.88l-.229-.914a.5.5 0 0 1 .522-.62l4.523.335a.5.5 0 0 0 .163-.014l2.504-.65A.5.5 0 0 1 16.711 1Z" stroke="red"/></svg>