<svg width="40" height="26" fill="none" xmlns="http://www.w3.org/2000/svg"><path d="M11.127 2.038c2.505.667 10.977 1.584 12.944 1.672 1.797.081 1.357.972 1.267 1.127l-.026.045c-.71 1.329-3.016 3.816-6.67 3.318-4.592-.626-5.636-.94-6.994.209-1.357 1.148.105 3.445 1.044 5.22.94 1.774 1.88 2.61 3.341 2.714 1.096.078 2.033-1.366 2.433-2.236a.528.528 0 0 1 .233-.25l2.14-1.116a.5.5 0 0 1 .214-.056l8.76-.31 5.869.104c.054 0 .108.01.16.029l1.143.408a.5.5 0 0 1 .312.33l1.584 5.405a.5.5 0 0 1-.262.59l-3.027 1.468a.505.505 0 0 1-.076.03l-5.598 1.659-13.246 2.954a.5.5 0 0 1-.518-.2l-4.276-6.065a.48.48 0 0 1-.037-.062c-1.572-3.108-4.766-9.45-5.1-10.199C6.325 7.886 1 2.457 1 1.518c0-.742 2.168-.529 3.296-.322.03.005.06.008.09.008 1.247.004 4.265.175 6.74.834Z" stroke="red"/></svg>