<svg width="40" height="21" fill="none" xmlns="http://www.w3.org/2000/svg"><path d="M15.938 19.7H29.1c3.2 0 3.1-.7 2.8-1.9-.3-1.2 0-1.6 1.4-1.1s3.3.6 3.6 0l1.873-3.746a.5.5 0 0 0-.232-.674l-6.517-3.12a.5.5 0 0 0-.26-.048l-5.194.464a.53.53 0 0 0-.404.26c-.358.6-1.04 1.52-1.728 1.752a.415.415 0 0 1-.078.017c-4.468.59-5.765-.309-7.46-1.605-1.7-1.3-2.9-5-3.6-6-.7-1-3.7-3-5.1-3C6.8 1 5.7 2.2 5 2.8c-.43.369-1.163.525-1.691.578a.546.546 0 0 0-.49.424l-.208 1.044a.5.5 0 0 1-.034.105L1.432 7.528a.5.5 0 0 0-.04.15l-.366 3.379a.5.5 0 0 0 .15.413l2.645 2.56c.164.159.2.408.088.608-.338.605-.785 1.438-.947 1.848-.053.133-.003.27.114.354 2.012 1.436 8.178 1.057 9.924.96 1.243-.069 2.078.9 2.455 1.595a.56.56 0 0 0 .483.305Z" stroke="red"/></svg>