<svg width="40" height="26" fill="none" xmlns="http://www.w3.org/2000/svg"><path d="m27.074 4.025 9.325-2.884a.5.5 0 0 1 .618.31l1.81 5.053a.5.5 0 0 1-.317.644l-19.492 6.33a.5.5 0 0 0-.1.045l-5.812 3.444a.5.5 0 0 0-.195.211l-1.215 2.497a.5.5 0 0 1-.14.175l-2.92 2.294a.5.5 0 0 0-.146.183l-1.124 2.426a.5.5 0 0 1-.704.222l-5.229-3.024a.5.5 0 0 1-.182-.683l.484-.837a.5.5 0 0 0 .066-.29l-.2-2.524a.5.5 0 0 1 .045-.249l1.556-3.383a.5.5 0 0 1 .293-.264l5.604-1.912a.5.5 0 0 1 .636.315l.044.131a.5.5 0 0 0 .05.107l.212.34a.5.5 0 0 0 .362.23l.254.032a.5.5 0 0 1 .19.065l.626.365a.5.5 0 0 1 .229.293l.532 1.84a.5.5 0 0 0 .82.228l.296-.273a.499.499 0 0 1 .16-.1l.828-.318a.494.494 0 0 0 .084-.042l3.509-2.175a.5.5 0 0 0 .206-.255l.174-.478a.5.5 0 0 1 .222-.263l2.395-1.369a.51.51 0 0 1 .068-.032l6.39-2.474a.5.5 0 0 0 .293-.63l-.93-2.68a.5.5 0 0 1 .325-.641Z" stroke="red"/></svg>