<svg width="39" height="26" fill="none" xmlns="http://www.w3.org/2000/svg"><path d="m36.016 25.09 1.537-.521a.993.993 0 0 0 .546-1.44c-4.05-6.964-11.722-19.467-12.645-20.017-1.934-1.15-2.902 2.573-3.902 4.073-1 1.5-.018 3.67 1.165 4.981.749.83 3.442.946 4.442 1.946 1.714 1.714 2.492 5 .253 5H15.116c-3.5 0-8.635.074-9.135-.426s.25-.842 1.076-1.99c.645-.896 2.437-.573 4.685-.296 2 .333 6.278 1.027 7.078.627 1-.5.568-.674-2.932-3.174s-2.752-2.606-2.434-4.74c.226-1.523-1.098-2.167-2.352-2.467a1.002 1.002 0 0 1-.28-.11c-1.212-.72-3.546-2.448-4.317-3.99-.574-1.147-1.479-1.496-2.13-1.54-.38-.027-.648.298-.7.676L1.343 18.865a1 1 0 0 0 .052.48l.926 2.515a1 1 0 0 1-.209 1.03L.79 24.3a.5.5 0 0 0 .365.842h34.541a1 1 0 0 0 .321-.053Z" stroke="red"/></svg>