<svg width="40" height="25" fill="none" xmlns="http://www.w3.org/2000/svg"><path d="M16.387 6.379c.479-.371 9.568-3.675 13.925-5.268a.496.496 0 0 1 .53.126l.984 1.028a.5.5 0 0 0 .523.128l1.976-.676a.5.5 0 0 1 .53.134c1.087 1.183 3.033 3.286 3.592 3.845.748.75.748 1.294-.069 1.839-.808.538-1.816-.722-2.365-1.409l-.017-.021c-.545-.681-1.022-1.022-1.703-.681-.68.34-5.991 1.702-7.625 2.247-1.623.54-1.567 1.082-1.366 3.023l.004.04c.204 1.975 5.31 3.132 7.15 3.677 1.837.545 1.088 1.634.816 2.792-.272 1.157 2.451 2.314 2.996 2.519.375.14 1.047.796 1.458 1.237.112.12.154.287.11.445-.204.727-.648 1.94-1.228 2.47-.817.75-2.587.41-4.834-.544-2.247-.953-4.834-5.174-6.06-6.672-.946-1.157-4.085-1.942-5.69-2.22a.49.49 0 0 0-.313.051l-4.435 2.349a.492.492 0 0 1-.096.038l-4.015 1.156a.5.5 0 0 1-.6-.288l-.284-.682a.5.5 0 0 0-.724-.233l-8 4.932a.2.2 0 0 1-.287-.253l1.343-2.966a.5.5 0 0 1 .05-.087l1.914-2.639a.492.492 0 0 1 .07-.078c1.081-.968 3.233-2.968 3.502-3.506.34-.68.817-1.566 2.178-1.702 1.362-.136 2.452-1.498 2.996-1.838.545-.34 2.451-1.838 3.064-2.313Z" stroke="red"/></svg>