<svg width="40" height="25" fill="none" xmlns="http://www.w3.org/2000/svg"><path d="M7.635 8.089c3.875-2.204 9.652-5.44 12.187-6.714a.445.445 0 0 1 .16-.047c1.778-.187 8.814-.326 10.249-.326 1.822 0 3.116-.116 4.44 1.306 1.34 1.436 4.22 5.36 4.317 6.512.096 1.15-.384 4.508-1.151 4.892-.768.384-4.163-.717-6.561-1.772-2.399-1.055-2.265-3.312-1.977-4.176.22-.658 1.355-3.054 2.014-4.246a.507.507 0 0 0 .053-.352l-.029-.136a.496.496 0 0 0-.682-.353c-1.19.52-3.04 1.369-3.562 1.826-.768.671-.768 1.822-1.343 2.59-.576.767-1.823 1.055-2.686.96-.657-.074-.788-.904-.771-1.37a.439.439 0 0 1 .027-.136l.83-2.277a.482.482 0 0 0-.585-.635c-.739.212-1.842.545-3.05.964-2.495.863-3.096 1.226-3.096 3.912 0 2.687 3.526 3.592 9.208 5.486 5.528 1.843 5.29 3.886 5.207 6.718v.001c-.062 2.117-.08 2.714-1.882 3.032-1.353.238-17.496.228-21.237.228-3.741 0-4.976-3.75-4.88-5.764.05-1.059.45-1.956.394-2.701-.056-.746-1.085-.911-1.814-1.366-1.535-.96 1.328-3.274 6.22-6.056Z" stroke="red"/></svg>