<svg width="41" height="30" fill="none" xmlns="http://www.w3.org/2000/svg"><path d="M37.327 17.145 27.64 8.233a.494.494 0 0 1-.085-.102c-.665-1.064-2.078-3.31-2.69-4.229-.78-1.168-2.077-1.038-2.856-.779-.78.26-2.207.13-3.246-.519l-.048-.03c-1.003-.627-1.392-.87-2.159-.36-.623.416-2.942-.173-4.024-.52-1.73-.303-5.66-.856-7.53-.648-2.336.26-2.855 2.727-3.245 4.285-.39 1.558-1.558 7.79.13 10.905 1.688 3.116 3.505 3.116 4.933 2.077.966-.703-.537-1.826-1.81-2.522-.31-.17-.377-.597-.12-.84l1.67-1.571c1.947-1.818 6.595-5.843 9.607-7.4 2.637-1.364 4.272.357 4.957 1.765.14.286-.063.604-.38.64l-2.073.23a.506.506 0 0 0-.367.778c.497.77 1.17 1.848 1.628 2.688.779 1.428.909 2.986-.52 5.063-1.142 1.661-.216 3.288.39 3.894.909.909 2.986 3.064 4.024 4.414 1.298 1.688 3.635 3.635 4.414 3.894.779.26 2.077-1.168 2.337-1.947.138-.416.014-.934-.148-1.335-.11-.27-.021-.597.237-.732l2.507-1.308c.562-.346 2.103-1.065 3.765-1.168 2.077-.13 2.596-1.688 2.855-2.337.208-.52-1.557-2.466-2.466-3.374Z" stroke="red"/></svg>