<svg width="40" height="23" fill="none" xmlns="http://www.w3.org/2000/svg"><path d="m35.92 20.86 2.683.939a.298.298 0 0 0 .219-.556c-.891-.396-2.597-1.194-3.517-1.768-.919-.575-3.517-3.962-4.945-5.914a.992.992 0 0 1-.148-.871l.166-.552a.989.989 0 0 0-.192-.926c-.924-1.087-2.657-3.055-4.272-4.67-1.64-1.639-4.046-2.753-5.393-3.234a.944.944 0 0 0-.855.123l-1.015.702a1 1 0 0 1-1.164-.018l-3.202-2.372a1 1 0 0 0-.838-.167l-1.885.472a1 1 0 0 1-.243.03H9.131a1 1 0 0 1-.76-.35l-.243-.283a1 1 0 0 0-.955-.33l-1.735.347c-1.283.36-3.941 1.2-4.31 1.693-.213.283-.131.645.035.962.2.381.686.448 1.07.256l.28-.14a1 1 0 0 1 1.123.157l3.068 2.812a1 1 0 0 0 .268.176l8.091 3.613a1 1 0 0 1 .529.562l.183.49a1 1 0 0 0 .46.528l3.367 1.823 6.62 3.233 4.24 1.817c.047.02.095.037.145.05l5.314 1.366Z" stroke="red"/></svg>