<svg width="37" height="31" fill="none" xmlns="http://www.w3.org/2000/svg"><path d="M10.521 1.52c-.385.77-5.879 14.231-9.011 21.93-.335.824-.559 1.705-.449 2.588.683 5.496 6.894 4.628 8.516 3.885 1.731-.794.74-4.094.513-4.851l-.005-.016c-.218-.727-1.743-6.03-.436-6.683 1.308-.654 1.599 2.324 2.616 1.38 1.017-.944 6.174-2.688 8.136-3.269 1.96-.581 7.99-.363 9.007-.145 1.017.218 1.598 1.38 1.235 2.252-.363.871-3.269 1.453-4.14 1.453-.872 0-2.18.944-2.616 2.251-.436 1.308 5.303 2.906 6.61 2.688 1.308-.218 1.38-1.453 2.107-2.833.727-1.38 2.979-3.487 3.415-5.666.435-2.18-2.252-3.56-3.27-3.995-1.016-.436-5.665-.364-6.537-.146-.872.218-3.487 2.034-5.376 2.47-1.888.436-4.794-.436-6.9-.799-2.107-.363-4.36 1.526-5.885 1.598-1.525.073-1.452-1.525-.799-2.106.654-.581 2.979-1.017 3.705-1.671.726-.654.508-4.359.654-4.867.145-.509 1.09-2.179 1.888-4.14.8-1.961-2.47-2.325-2.978-1.308Z" stroke="red"/></svg>