<svg width="39" height="23" fill="none" xmlns="http://www.w3.org/2000/svg"><path d="m37.407 1.39.472.864c.153.21.48.708.57 1.028.115.399-1.882 1.14-2.453 1.483-.57.342-2.054 1.769-2.51 2.625-.457.856-4.907 3.595-5.364 3.937-.456.342-2.282 1.027-2.225.57.046-.365-.742-.456-1.141-.456l-7.475.342a6.504 6.504 0 0 1-1.79-.173.548.548 0 0 0-.595.216c-.387.595-.925 1.482-1.038 1.897-.171.628 1.027 3.48 1.084 4.222.057.742-.628 2.454-1.084 2.91-.457.457-3.081.457-4.222 0-1.141-.456-5.079.685-6.904.97-1.826.286-1.77-.57-1.712-.97.057-.399 3.766-3.252 4.108-3.708.342-.457-.456-1.313-.456-1.77 0-.456 2.34-6.675 2.853-7.759.513-1.084 1.426-1.312 1.769-1.54.223-.15.562-.41.783-.583a.503.503 0 0 0 .172-.262c.11-.392.294-.994.414-1.153.17-.228 5.705-.97 7.075-1.084 1.084-.09 4.496.558 6.114.903.033.007.064.01.098.01 1.959.019 5.982-.025 6.797-.342.764-.297 4.117-1.635 6.037-2.403a.5.5 0 0 1 .623.225Z" stroke="red"/></svg>