<svg width="40" height="18" fill="none" xmlns="http://www.w3.org/2000/svg"><path d="M33.799 8.883c6.196 1.404 4.379 2.562 5.04 4.876.165.605.346 2.03-.248 2.889-.744 1.074-2.066.413-2.479-.248-.413-.66 1.157-2.478 1.157-4.13 0-1.653-1.818-.249-3.057.247-1.24.496-2.066.165-2.892-.578-.826-.744-2.065-.661-2.726-.248-.33.206-.377.873-.325 1.52.033.42-.406.762-.784.575-4.458-2.209-11.97-5.982-12.523-6.474-.743-.66-1.405.165-1.652.496-.248.33-.992 1.24-3.057-.33-2.066-1.57-4.379-1.818-5.7-2.149-1.323-.33-.91-1.487-1.57-2.148-.298-.297-.748-.347-1.164-.3-.379.044-.763-.25-.656-.616.152-.523.414-1.064.828-1.23.827-.33 2.314 1.735 2.81 2.23.396.397 3.304.993 4.708 1.24 4.351.992 13.12 2.892 13.384 2.562.165-.206.446-.573.693-.9.195-.259.584-.271.823-.053.37.34.895.735 1.459.952 1.074.413 1.735.413 7.93 1.817Z" stroke="red"/></svg>