<svg width="25" height="28" fill="none" xmlns="http://www.w3.org/2000/svg"><path d="M24.048 10.274c.462.347.24 3.707.072 5.344-.024 1.66-.072 5.055-.072 5.344 0 .352-1.1.43-1.758.299a.567.567 0 0 0-.096-.012l-2.985-.07c-2.379-.057-2.407 1.178-2.112 1.838.012.026.021.053.034.079.22.454 1.862.393 3.723.324l.089-.003c1.95-.072 2.383.794 2.455 1.516.072.723-.794 2.023-2.094 1.95-1.04-.057-10.447-.12-15.021-.144l-5.002-.23a.499.499 0 0 1-.297-.881c.907-.755 1.97-1.636 2.338-1.922.65-.506 6.138 0 7.077-.072.939-.073 2.094-1.228 1.878-1.878-.164-.49-2.307-1.532-3.54-2.073a.502.502 0 0 1-.282-.318L6.716 13.45c-.361-1.228-.433-5.633-.578-6.427-.144-.794-3.683-2.6-4.333-3.25-.65-.65-.144-2.02.723-2.599.657-.438 4.484.043 6.603.381.2.032.359.183.404.381l.249 1.096a.493.493 0 0 0 .167.272c1.055.87 3.054 2.403 3.553 2.348.437-.048 1.65-.779 2.469-1.311a.507.507 0 0 1 .699.14 490.158 490.158 0 0 1 2.537 3.843c.795 1.227 4.261 1.516 4.839 1.95Z" stroke="red"/></svg>