<svg width="40" height="21" fill="none" xmlns="http://www.w3.org/2000/svg"><path d="M17.515 19.634c4.019-.079 14.253-.336 15.366-.394 1.114-.057 2.982-.088 4.8-.815 2.274-.91 1.163-3.586-.024-3.586-1.188 0-15.28-.026-15.81 0-.53.025-1.01-.733-1.566-.96-.374-.153-1.165-.055-1.683.045a.523.523 0 0 1-.458-.127l-7.902-7.386a.506.506 0 0 1-.062-.071L6.454 1.227a.493.493 0 0 0-.444-.202c-.907.085-2.465.276-3.156.53-.96.354-1.64.884-1.843 1.364-.156.37 1.371 3.44 2.234 5.084.058.109.153.192.27.235l.107.04c.327.12.587.603.595.95.015.603.127 1.64.455 3.314.63 4.334 2.286 6.152 5.829 6.96 2.079.473 3.47-.187 4.43-.771a.451.451 0 0 1 .693.382.46.46 0 0 0 .44.46l1.451.06Z" stroke="red"/></svg>