<svg width="40" height="22" fill="none" xmlns="http://www.w3.org/2000/svg"><path d="M16.234 20.841c3.09 0 3.89-1.82 3.928-3.061.009-.292.203-.563.492-.606a.533.533 0 0 0 .448-.58 47.972 47.972 0 0 1-.203-4.416c0-2.871.564-2.666 4.921-5.793 4.357-3.127 10.663-5.331 11.79-5.383 1.128-.05 1.436.718 1.385 1.64-.052.924-.718 2.308-2.512 1.898-1.794-.41-3.742-1.077-6.152 0-2.409 1.076-2.768 2.46-3.178 3.69-.41 1.23 1.435 4.153.872 4.255-.395.072-1.107-1.055-1.53-1.842a1.048 1.048 0 0 0-.48-.458l-4.332-2.002a1 1 0 0 0-1.256.36l-.942 1.442a1.036 1.036 0 0 0-.147.753c.275 1.511.556 4.177-.08 5.336-.87 1.589-2.716 2.306-3.331 2.306-.616 0-1.64-2.665-2.717-2.665-1.077 0-1.897 1.128-2.717 1.64-.82.513-2.05-.461-3.025-.512-.974-.052-.769.512-1.538.974-.615.369-1.794.153-2.306 0-.735-.154-2.276-.257-2.563.563-.36 1.026.973 2.461 1.486 2.461h13.687Z" stroke="red"/></svg>