<svg width="46" height="28" viewBox="0 0 46 28" fill="none" xmlns="http://www.w3.org/2000/svg">
<path fill-rule="evenodd" clip-rule="evenodd" d="M38.9998 1.22911C38.9998 0.359078 40.1039 -0.0697294 40.6666 0.648997C42.1004 2.48058 44.0701 5.23325 45.1172 6.71164C45.6642 7.48402 45.9523 8.40133 45.9523 9.34503V25.2854C45.9523 25.6904 45.7483 26.0572 45.4194 26.2765L45.081 26.5021V26.9158C45.081 27.3364 44.74 27.6773 44.3194 27.6773H16.3094C15.9782 27.6773 15.5706 27.5872 15.1414 27.4577C14.7 27.3245 14.1884 27.1348 13.6319 26.9048C12.518 26.4446 11.1925 25.8103 9.83244 25.1074C7.11574 23.7034 4.21742 22.0029 2.53774 20.8239C2.39194 20.7216 2.24141 20.6376 2.08433 20.5732L1.14184 20.1865C0.822681 20.0556 0.649542 19.7088 0.736682 19.375L1.48825 16.4961C1.67428 15.7835 2.12807 15.1422 2.82779 14.7908C3.58382 14.4112 4.72237 13.8878 5.95337 13.3719C7.03053 12.9204 7.66028 12.3671 8.0309 11.7564C8.40491 11.1402 8.55323 10.403 8.55323 9.51598C8.55323 8.8243 8.55681 7.5949 8.5607 6.26197C8.56491 4.81422 8.56949 3.24435 8.57022 2.10871C8.57055 1.58939 9.03752 1.20307 9.54233 1.28771L11.6518 1.6414C11.7925 1.33069 12.0849 1.09106 12.4497 1.04187C14.197 0.806203 15.486 1.43236 16.3308 2.28097C17.1455 3.09933 17.5677 4.14673 17.5899 4.8329L17.59 4.83766L17.6493 8.58378L28.5888 8.38901H28.594C31.9804 8.38901 36.9704 8.33972 38.7164 8.10378C38.9405 8.07349 39.6138 7.86557 40.1373 7.46886C40.3924 7.2755 40.5762 7.06383 40.6713 6.84368C40.7596 6.63933 40.7878 6.39272 40.6735 6.07093C40.5266 5.65727 40.1155 5.0765 39.6797 4.52654C39.2505 3.98477 38.9998 3.31288 38.9998 2.60603V1.22911ZM40.1603 1.89072V2.60603C40.1603 3.03581 40.3127 3.45674 40.5893 3.80587C41.0109 4.33801 41.5463 5.06096 41.7671 5.68256C41.9774 6.27485 41.9436 6.82485 41.7366 7.30393C41.5365 7.7672 41.1918 8.12577 40.8382 8.39372C40.1443 8.91963 39.2799 9.19865 38.8718 9.2538C37.0293 9.50279 31.9445 9.54943 28.5991 9.54948L17.5609 9.74601C16.9794 9.75636 16.4998 9.29269 16.4907 8.71112L16.4299 4.86623C16.4167 4.51838 16.1486 3.74277 15.5084 3.09969C14.9075 2.49611 13.9958 2.02737 12.6821 2.18216L12.6266 2.31052C12.4677 2.67797 12.0787 2.88964 11.6838 2.82344L9.73032 2.49591C9.72897 3.59377 9.72492 4.97903 9.72116 6.26651C9.71728 7.5947 9.7137 8.81883 9.7137 9.51598C9.7137 10.5254 9.54594 11.4968 9.02295 12.3585C8.49658 13.2258 7.64842 13.9197 6.40194 14.4421C5.1898 14.9502 4.07607 15.4625 3.3486 15.8279C2.98753 16.0092 2.7249 16.3533 2.61109 16.7892L1.96364 19.2693L2.52479 19.4995C2.76919 19.5998 2.99506 19.7271 3.20445 19.8741C4.82579 21.0121 7.67423 22.6857 10.3652 24.0765C11.7091 24.771 13.0027 25.3892 14.075 25.8323C14.6115 26.0539 15.0848 26.2285 15.4766 26.3467C15.8806 26.4686 16.1545 26.5169 16.3094 26.5169H43.9205V26.4827C43.9205 26.1068 44.1083 25.7558 44.4211 25.5473L44.7757 25.3109C44.7837 25.3055 44.7874 25.3004 44.7891 25.2973C44.7907 25.2944 44.7919 25.2909 44.7919 25.2854V9.34503C44.7919 8.63883 44.5767 7.9564 44.1701 7.38235C43.2196 6.04014 41.523 3.66839 40.1603 1.89072Z" fill="#FF0000"/>
</svg>
