<svg width="40" height="26" fill="none" xmlns="http://www.w3.org/2000/svg"><path d="M33.734 1.21 3.488 13.604c-1.762.589-2.242 2.027-2.456 3.416-.213 1.388.694 1.441 1.015 1.228.32-.214 1.228-.534 1.602-.427.373.106.96-.107.96-.748 0-.287.135-.566.29-.786.165-.234.496-.198.668.03L7.8 19.281c.135.179.37.247.579.166 1.449-.56 4.049-1.568 5.149-2a29.075 29.075 0 0 1 6.995-1.762c3.044-.374 3.044 1.655 3.685 1.869.64.213 2.99-1.602 4.219-1.71 1.228-.106 2.616 1.55 2.937 1.55.225 0 1.316.137 2.025.23.169.023.314.13.386.284l3.102 6.652a.5.5 0 0 0 .911-.012l.932-2.134a.5.5 0 0 0-.418-.698l-.81-.066a.5.5 0 0 1-.46-.507c.09-4.887.235-14.157.152-15.605-.106-1.869-.907-1.922-1.602-2.136-.441-.136-.89-1.113-1.162-1.875a.524.524 0 0 0-.686-.317Z" stroke="red"/></svg>