<svg width="40" height="16" fill="none" xmlns="http://www.w3.org/2000/svg"><path d="M38.326 2.277 5.752 1.001c-1.25-.05 1.25 2.397 2.814 2.345 1.563-.052 3.075-1.355 4.847-1.407 1.771-.052 6.462 3.23 8.442 4.273 1.98 1.042 4.272 2.46 2.814 2.814-1.72.417-1.303 1.511-1.407 3.023-.104 1.51-3.075 1.824-4.534 1.824-1.46 0-6.306-3.127-7.608-3.752-1.303-.626-2.554 1.094-3.805 1.094-1.203 0-2.501-1.72-3.595-1.72-1.095 0-2.867 1.511-2.71 2.554.156 1.042 1.772.99 2.397.886.625-.105 1.98.52 4.117.625 2.136.104 7.556-.052 8.39.417.834.469 5.003 1.668 9.12 1.146 3.025-.383 8.422-3.257 11.327-4.988.324-.194.32-.666.014-.889-.704-.513-1.458-1.231-1.336-1.783.209-.938 1.772-.521 2.554-.521.508 0 .982-.735 1.254-1.308a.466.466 0 0 0-.17-.582l-.197-.135a.5.5 0 0 1-.188-.576l.486-1.4a.5.5 0 0 0-.452-.664Z" stroke="red"/></svg>