<svg width="40" height="27" fill="none" xmlns="http://www.w3.org/2000/svg"><path d="M29.73 3.154c1.022-.575 3.602-1.584 4.876-2.117a.442.442 0 0 1 .18-.037c1.474.035.404 2.071-.401 3.21a.513.513 0 0 0-.094.267l-.041.69c-.01.17.066.334.21.425.273.172.647.37.883.37.297 0 .54-.783.638-1.235a.445.445 0 0 0 .008-.143 6.615 6.615 0 0 0-.254-1.233c-.135-.406.239-.679.526-.801a.414.414 0 0 1 .258-.016l.93.218a.482.482 0 0 1 .093.033c.534.248 1.507.77 1.456 1.023-.065.326-.718 1.305-1.697 2.35-.979 1.044-3.98 4.437-6.396 5.743-2.414 1.305-7.048.717-8.223.522-.866-.145-2.131-.633-2.784-.913a.51.51 0 0 0-.316-.029l-1.385.32a.5.5 0 0 1-.29-.02l-1.19-.453a.483.483 0 0 1-.075-.036c-.971-.573-2.959-1.717-3.423-1.871-.587-.196-4.177-.98-4.764-.98-.588 0-2.61 2.676-2.937 3.264-.214.384.256.998.66 1.4.148.145.21.36.142.555-.438 1.28-1.163 3.457-1.259 3.984-.093.51-.879.852-1.389.998a.489.489 0 0 0-.282.197c-.13.203-.287.496-.287.697 0 .327-.13 2.024.065 3.068.196 1.044.196 1.37 1.045 1.5.848.131.652.915.717 1.567.066.653-1.435.522-2.545.066-1.11-.457-1.175-1.11-.979-1.763.196-.652-.261-2.153-.392-3.393-.13-1.24.653-3.525 1.24-4.634.588-1.11.914-3.394 1.24-4.503.327-1.11 2.089-2.807 2.415-3.198.327-.392.783-.849.914-1.567.13-.717 1.044-.391 1.762.196.718.588 3.655.653 5.548 1.37 1.892.719 1.957.85 3.198.98 1.24.13 2.48 0 4.111.326 1.632.326 3.394 1.828 5.613.653 2.219-1.175 1.175-2.546.783-4.177-.392-1.632.848-2.284 1.893-2.873Z" stroke="red"/></svg>