<svg width="43" height="32" viewBox="0 0 43 32" fill="none" xmlns="http://www.w3.org/2000/svg">
<path d="M39.7496 30.9489H6.93715C4.67012 30.9489 3.6859 28.0803 5.47539 26.6885L9.37862 23.6527C10.0285 23.1472 9.98142 22.1506 9.28688 21.7086L4.5288 18.6807C4.29341 18.5309 4.1181 18.3032 4.03351 18.0373L0.731779 7.66047C0.32839 6.39267 1.04218 5.04031 2.31649 4.65801L3.81819 4.2075C5.01816 3.84751 6.29155 4.47845 6.73637 5.64962C7.41237 7.42946 8.27928 9.68831 8.92636 11.306C10.1168 14.2822 10.7121 12.4965 11.3073 7.13935C11.9025 1.7822 13.093 0.591728 14.8787 1.18697C16.6645 1.7822 16.0692 2.97268 16.6645 4.7584C17.2597 6.54411 19.6406 8.32982 20.2359 9.5203C20.8311 10.7108 18.4501 14.2822 19.6406 16.0679C20.8311 17.8536 24.4025 15.4727 27.3787 12.4965C30.3549 9.5203 30.9501 2.37744 32.7359 2.37744H36.0709C37.3254 2.37744 38.4879 3.03565 39.1334 4.11139L40.3987 6.22028C41.1609 7.49054 41.0597 9.09944 40.1445 10.2643L35.6334 16.0057C35.3234 16.4002 35.294 16.9467 35.5599 17.3722L41.7686 27.306C42.7597 28.8918 41.6196 30.9489 39.7496 30.9489Z" stroke="#FF0000" stroke-width="1.19048"/>
</svg>
