<svg width="43" height="26" fill="none" xmlns="http://www.w3.org/2000/svg"><path d="M37.834 9.08c.276-.275 2.87-4.085 4.253-6.152a.406.406 0 0 0-.156-.59l-2.603-1.301a.407.407 0 0 0-.503.113L34.38 6.854a.407.407 0 0 0 .041.546l1.236 1.17a.407.407 0 0 1 .062.516l-1.416 2.203a.407.407 0 0 1-.154.14l-1.654.863a.407.407 0 0 1-.552-.178l-.947-1.895a.414.414 0 0 0-.489-.21c-1.002.3-2.883.78-4.453.91-2.209.184-4.786-1.84-9.756-3.497-3.806-1.269-7.241.004-8.658.896a.352.352 0 0 0-.166.33c.042.47.223 1.276.725 1.903.736.92 1.197 3.681.736 4.878-.35.913-4.302 1.173-6.503 1.195a.41.41 0 0 0-.39.298l-.882 3.127a.407.407 0 0 0 .04.315l2.3 3.944a.407.407 0 0 0 .528.163l7.911-3.788a.414.414 0 0 0 .18-.577c-.707-1.254-1.777-3.434-1.71-4.493.091-1.473 1.104-3.313 3.588-3.497 2.485-.184 4.142 2.853 5.246 3.957.884.884 2.884.491 3.774.184 3.283-.92 10.087-2.871 11.044-3.313 1.197-.552 3.406-3.497 3.774-3.864Z" stroke="red" stroke-width="1.011"/></svg>