<svg width="40" height="24" fill="none" xmlns="http://www.w3.org/2000/svg"><path d="m32.056 5.031 5.938-3.864c.644-.502 1.217.144.93 1.718-.286 1.574-2.075 4.365-4.006 6.082-1.932 1.717-4.293 1.43-5.08 1.288-.787-.143-2.647.286-2.862.93-.215.644-1.073 1.788-2.29 1.86-1.216.072-3.648 1.431-4.006 2.29-.358.858-1.717 2.074-2.433 2.074-.715 0-2.146.43-2.504 1.074-.358.643-2.504 1.86-3.22 2.146-.715.286-1.574.286-1.788 0-.215-.286-.644-.715-1.217-.5-.572.214-2.003.07-2.36 0-.358-.072-1.074.285-2.004.572-.93.286-1.717 1.788-2.29 2.146-.572.358-1.287.286-1.788-.43-.4-.572.882-1.24 1.574-1.502 1.36-.572 4.164-1.76 4.508-1.932.429-.214 1.788 0 2.432-.357.644-.358 1.789-.072 2.003.214.215.287.501.716 2.147.358 1.645-.358 1.001-1.789 1.645-2.218.644-.43 1.646-.286 2.576-.43.667-.102.962-.979 1.05-1.537a.53.53 0 0 1 .153-.305c.307-.292.835-.75 1.23-.947.445-.223 2.053-1.095 2.865-1.537a.5.5 0 0 1 .144-.052l1.509-.292a.43.43 0 0 0 .275-.66.43.43 0 0 1 .083-.568l6.786-5.62Z" stroke="red"/></svg>