<svg width="40" height="24" fill="none" xmlns="http://www.w3.org/2000/svg"><path d="M37.951 3.453 39 14.673c0 .579-.043 1.856-.217 2.334-.217.597-1.249 1.737-1.629 1.954-.38.217-6.894-.543-7.22-.76-.325-.217-.434-1.411-.705-1.791-.272-.38-3.149-.489-3.529-.272-.38.217-.76 1.792-1.357 1.9-.597.109-4.452-.597-4.832-1.031-.231-.265-.246-.989-.208-1.55a.531.531 0 0 0-.404-.56c-.73-.164-1.792-.41-2.319-.55-.749-.2-3.93-3.108-4.649-3.574-.08-.053-.171-.039-.244.024-1.494 1.294-3.202 8.998-3.467 9.738-.271.76-.706 3.312-1.086 2.552-.38-.76-2.063-1.846-2.823-2.552-.76-.705-.38-2.334-.38-2.877 0-.38-.664-.51-1.122-.537A.548.548 0 0 1 2.49 17l-1.153-.961a.498.498 0 0 1-.104-.65c1.512-2.401 4.215-6.708 4.545-7.285.434-.76 1.683-2.008 2.443-1.9.527.075 1.786 1.625 2.666 2.732a.499.499 0 0 0 .768.016l2.85-3.288a.498.498 0 0 1 .648-.093c2.257 1.461 6.307 4.09 6.965 4.542.67.46 5.85.79 6.222.813.015 0 .027.002.042.004.386.059 5.936.885 6.439.214.651-.869-.326-4.288-.923-6.08-.597-1.791.163-3.691.434-4.017.272-.326 1.303 1.14 1.9 1.411.333.151.87.378 1.295.506a.586.586 0 0 1 .425.49Z" stroke="red"/></svg>