<svg width="40" height="14" fill="none" xmlns="http://www.w3.org/2000/svg"><path d="M6.525 12.532H33.94c.192 0 .884-.02 2.116-.097 1.539-.096 2.693-.866 2.886-2.02.192-1.154-.097-3.27-.77-3.27s-.289-.866-.192-2.213c.096-1.347-.289-1.443-2.501-2.405-2.213-.962-3.079-.77-3.752.962-.673 1.731 3.078 2.309 3.655 3.56.578 1.25 0 2.115-.865 2.212-.866.096-7.6-4.137-10.293-6.06-2.693-1.924-4.521-1.059-5.29-.193-.77.866-2.598 3.174-2.79 4.81-.192 1.635-.673 2.212-3.174 2.404-2.502.193-3.56-1.25-5.868-2.404-2.309-1.155-1.54-1.924-.77-2.405.77-.481 2.597-.096 4.906.096 2.309.192 2.982-1.827 2.597-3.462C13.45.41 10.373 1.18 6.14 1.18c-4.232 0-5.387 3.368-5.098 5.004.288 1.635 3.27 2.403 4.328 3.654 1.059 1.25-.288 2.693 1.155 2.693Z" stroke="red"/></svg>