<svg width="48" height="30" viewBox="0 0 48 30" fill="none" xmlns="http://www.w3.org/2000/svg">
<path d="M9.08956 9.91496C13.7025 7.2917 20.5795 3.4401 23.5977 1.92307C23.6592 1.89212 23.7185 1.87393 23.787 1.86672C25.9052 1.64381 34.281 1.47896 35.989 1.47896C38.1588 1.47896 39.6991 1.34112 41.2755 3.03289C42.8693 4.74324 46.2998 9.41484 46.414 10.7853C46.5282 12.1557 45.9572 16.1527 45.0436 16.6095C44.13 17.0663 40.0879 15.7563 37.2328 14.5C34.3778 13.2438 34.5371 10.5569 34.8797 9.52905C35.141 8.7451 36.4923 5.89281 37.2775 4.47408C37.3484 4.34588 37.3714 4.19757 37.3407 4.0543L37.3061 3.8931C37.2278 3.52754 36.8363 3.32358 36.4937 3.47303C35.0765 4.09104 32.8747 5.10224 32.2531 5.6462C31.3395 6.44561 31.3395 7.81602 30.6542 8.72964C29.969 9.64325 28.4844 9.98585 27.4566 9.87165C26.675 9.7848 26.5194 8.79663 26.5387 8.24143C26.5406 8.18623 26.5526 8.1323 26.5715 8.0804L27.5591 5.36858C27.7223 4.92029 27.3215 4.48107 26.863 4.61273C25.9839 4.86513 24.6707 5.26211 23.2312 5.7604C20.2619 6.78821 19.5462 7.22087 19.5462 10.4185C19.5462 13.6161 23.7444 14.6944 30.508 16.949C37.0893 19.1427 36.8053 21.5747 36.7069 24.9462L36.7069 24.9478C36.6334 27.4682 36.6126 28.1791 34.4667 28.5568C32.8563 28.8403 13.6383 28.8291 9.18441 28.8291C4.73055 28.8291 3.26067 24.3645 3.37487 21.9662C3.43487 20.7061 3.91074 19.6385 3.84376 18.751C3.77677 17.8635 2.55204 17.6666 1.6849 17.1247C-0.142316 15.9826 3.26504 13.2273 9.08956 9.91496Z" stroke="#FF0000" stroke-width="1.19048"/>
</svg>
