<svg width="42" height="28" fill="none" xmlns="http://www.w3.org/2000/svg"><path d="m18.946 26.33-16.413.237a.407.407 0 0 1-.383-.56l.837-2.061a.402.402 0 0 0-.35-.554c-.55-.033-1.231-.095-1.456-.263-.394-.296-.394-1.083-.05-1.23.345-.149 15.803-4.875 17.477-5.86 1.674-.984 5.858-10.436 6.055-11.174.106-.398-.139-.995-.41-1.479-.153-.272.004-.634.314-.672 4.613-.558 12.789-1.504 13.388-1.392.602.113 1.94 2.39 2.617 3.665a.401.401 0 0 1 .012.35l-.735 1.675a.407.407 0 0 1-.244.223l-2.269.756a.348.348 0 0 1-.144.018c-.502-.048-1.906-.412-4.11-1.57-2.905-1.527-4.136-.69-4.579-.492-.443.196-.59.885-.492 1.525.098.64 8.86 6.156 9.107 6.648.246.493.197 2.265-.246 2.61-.304.236-1.907-.186-3-.529a.41.41 0 0 0-.533.36c-.03.446-.06 1-.06 1.35 0 .64-.395 1.625-1.625 1.92-1.231.295-2.413-.298-4.53-.495-2.116-.197-4.43.296-6.104 1.28-1.674.985-1.427 2.955-1.181 4.038.18.797-.346 1.377-.7 1.619a.35.35 0 0 1-.193.057Z" stroke="red" stroke-width="1.011"/></svg>