<svg width="40" height="29" fill="none" xmlns="http://www.w3.org/2000/svg"><path d="M16.049 27.59 1.735 19.43a.5.5 0 0 1-.013-.861l4.61-2.823a.51.51 0 0 1 .643.097c.833.924 2.375 2.483 3.612 3.226 1.743 1.046 3.312-.233 3.951-.64.474-.301.552-1.49.53-2.172a.475.475 0 0 0-.099-.273l-2.624-3.447c-.144-.189-.128-.458.095-.54.223-.083.539-.123.936-.017.872.232 1.395 1.453 1.743 1.917.349.465 1.743.407 2.208.291.337-.084.254-.779.15-1.211a.462.462 0 0 0-.125-.217L14.9 10.308a.3.3 0 0 1 .13-.502c1.43-.41 4.739-1.373 9.793-2.881 5.351-1.597 10.984-4.252 13.622-5.63.173-.09.362.094.276.269-1.147 2.32-3.051 6.2-3.265 6.756-.29.755-4.474 2.556-4.881 1.917-.407-.64-1.685-.93-2.382.058-.698.988-1.86 1.63-2.383 1.63-.522 0-1.278-.584-2.614-.41-1.337.174-1.511 1.627-1.57 2.382-.057.756-.638 1.629-1.51 1.977-.871.35-.639 1.104-1.046 2.266-.406 1.162-2.789 2.383-3.37 3.138-.58.755-.813 2.15-.232 2.905.325.423.858 1.704 1.282 2.813a.486.486 0 0 1-.701.593Z" stroke="red"/></svg>